HIERARCHY
ROOT Hips
{
	OFFSET 0.00000 0.00000 0.00000
	CHANNELS 6 Xposition Yposition Zposition Zrotation Yrotation Xrotation 
	JOINT LHipJoint
	{
		OFFSET 0 0 0
		CHANNELS 3 Zrotation Yrotation Xrotation
		JOINT LeftUpLeg
		{
			OFFSET 1.53139 -1.83434 0.76626
			CHANNELS 3 Zrotation Yrotation Xrotation
			JOINT LeftLeg
			{
				OFFSET 2.56112 -7.03663 0.00000
				CHANNELS 3 Zrotation Yrotation Xrotation
				JOINT LeftFoot
				{
					OFFSET 2.59983 -7.14299 0.00000
					CHANNELS 3 Zrotation Yrotation Xrotation
					JOINT LeftToeBase
					{
						OFFSET 0.13742 -0.37757 2.00054
						CHANNELS 3 Zrotation Yrotation Xrotation
						End Site
						{
							OFFSET 0.00000 -0.00000 1.02897
						}
					}
				}
			}
		}
	}
	JOINT RHipJoint
	{
		OFFSET 0 0 0
		CHANNELS 3 Zrotation Yrotation Xrotation
		JOINT RightUpLeg
		{
			OFFSET -1.40122 -1.83435 0.76627
			CHANNELS 3 Zrotation Yrotation Xrotation
			JOINT RightLeg
			{
				OFFSET -2.54052 -6.98003 0.00000
				CHANNELS 3 Zrotation Yrotation Xrotation
				JOINT RightFoot
				{
					OFFSET -2.63179 -7.23079 0.00000
					CHANNELS 3 Zrotation Yrotation Xrotation
					JOINT RightToeBase
					{
						OFFSET -0.24131 -0.66299 2.03908
						CHANNELS 3 Zrotation Yrotation Xrotation
						End Site
						{
							OFFSET -0.00000 -0.00000 1.07391
						}
					}
				}
			}
		}
	}
	JOINT LowerBack
	{
		OFFSET 0 0 0
		CHANNELS 3 Zrotation Yrotation Xrotation
		JOINT Spine
		{
			OFFSET 0.01174 2.10302 -0.29778
			CHANNELS 3 Zrotation Yrotation Xrotation
			JOINT Spine1
			{
				OFFSET 0.00772 2.13227 -0.01247
				CHANNELS 3 Zrotation Yrotation Xrotation
				JOINT Neck
				{
					OFFSET 0 0 0
					CHANNELS 3 Zrotation Yrotation Xrotation
					JOINT Neck1
					{
						OFFSET -0.09219 1.60848 0.31481
						CHANNELS 3 Zrotation Yrotation Xrotation
						JOINT Head
						{
							OFFSET 0.13974 1.65456 -0.31134
							CHANNELS 3 Zrotation Yrotation Xrotation
							End Site
							{
								OFFSET 0.04742 1.69515 -0.14578
							}
						}
					}
				}
				JOINT LeftShoulder
				{
					OFFSET 0 0 0
					CHANNELS 3 Zrotation Yrotation Xrotation
					JOINT LeftArm
					{
						OFFSET 3.24909 1.02882 -0.23993
						CHANNELS 3 Zrotation Yrotation Xrotation
						JOINT LeftForeArm
						{
							OFFSET 5.32955 -0.00000 -0.00000
							CHANNELS 3 Zrotation Yrotation Xrotation
							JOINT LeftHand
							{
								OFFSET 3.69232 -0.00000 -0.00000
								CHANNELS 3 Zrotation Yrotation Xrotation
								JOINT LeftFingerBase
								{
									OFFSET 0 0 0
									CHANNELS 3 Zrotation Yrotation Xrotation
									JOINT LeftHandIndex1
									{
										OFFSET 0.53660 -0.00000 -0.00000
										CHANNELS 3 Zrotation Yrotation Xrotation
										End Site
										{
											OFFSET 0.43262 -0.00000 -0.00000
										}
									}
								}
								JOINT LThumb
								{
									OFFSET 0 0 0
									CHANNELS 3 Zrotation Yrotation Xrotation
									End Site
									{
										OFFSET 0.43922 -0.00000 0.43922
									}
								}
							}
						}
					}
				}
				JOINT RightShoulder
				{
					OFFSET 0 0 0
					CHANNELS 3 Zrotation Yrotation Xrotation
					JOINT RightArm
					{
						OFFSET -3.21387 0.93002 -0.34594
						CHANNELS 3 Zrotation Yrotation Xrotation
						JOINT RightForeArm
						{
							OFFSET -5.23431 -0.00000 0.00000
							CHANNELS 3 Zrotation Yrotation Xrotation
							JOINT RightHand
							{
								OFFSET -3.55301 -0.00000 -0.00000
								CHANNELS 3 Zrotation Yrotation Xrotation
								JOINT RightFingerBase
								{
									OFFSET 0 0 0
									CHANNELS 3 Zrotation Yrotation Xrotation
									JOINT RightHandIndex1
									{
										OFFSET -0.77252 -0.00000 -0.00000
										CHANNELS 3 Zrotation Yrotation Xrotation
										End Site
										{
											OFFSET -0.62283 -0.00000 -0.00000
										}
									}
								}
								JOINT RThumb
								{
									OFFSET 0 0 0
									CHANNELS 3 Zrotation Yrotation Xrotation
									End Site
									{
										OFFSET -0.63234 -0.00000 0.63234
									}
								}
							}
						}
					}
				}
			}
		}
	}
}
MOTION
Frames: 11
Frame Time: .0083333
15.3242 18.161 -9.77 0 0 0 0 0 0 -21 0 0 0 0 0 0 0 0 0 0 0 0 0 0 21 0 0 0 0 0 0 0 0 0 0 0 0 0 0 0 0 0 0 0 0 0 0 -16 0 0 21 0 0 11 0 0 0 -8 0 0 0 0 0 0 0 0 0 0 0 0 0 0 0 0 0 0 0 0 8 0 0 0 0 0 0 0 0 0 0 0 0 0 0 0 0 0
15.3242 18.1610 -9.7700 1.1842 -51.7660 0.8043 0.0000 0.0000 0.0000 -23.9933 -5.6482 -3.3634 1.5675 7.9003 22.4116 0.6605 2.8134 -16.6265 0.1412 2.4217 6.6727 0.0000 0.0000 0.0000 22.9939 10.4891 -8.5296 -3.2325 -11.0622 32.4899 -1.1198 -1.1333 -20.4358 -0.0922 -1.9585 5.3909 0.2556 0.4984 6.4147 0.5088 0.7126 -1.6900 0.3068 0.3523 -5.3589 -9.0040 -4.1681 -24.6920 6.1070 -4.4650 26.9993 3.0908 -2.0758 13.6219 -0.0000 0.0000 0.0000 -86.8703 4.2015 25.2815 15.4454 -24.7629 -3.4103 -0.0000 -0.0000 9.7900 17.7178 26.2704 8.0486 -7.1250 0.0000 -0.0000 -13.4480 56.8622 -3.9586 -0.0000 0.0000 0.0000 90.5871 -2.4250 16.5626 -15.8054 25.2561 -3.5625 0.0000 0.0000 12.3463 -11.1161 9.1698 -1.7935 7.1250 -0.0000 -0.0000 11.3186 -20.7153 6.7133
15.3236 18.1586 -9.7720 1.1454 -51.6366 0.8624 0.0000 0.0000 0.0000 -23.9073 -5.5525 -3.4506 1.5657 7.8960 22.3986 0.6547 2.7673 -16.5358 0.0776 1.7967 4.9441 0.0000 0.0000 0.0000 23.0461 10.5369 -8.5376 -3.2359 -11.0674 32.5077 -1.1179 -1.3973 -20.5270 -0.0787 -1.8098 4.9804 0.2219 0.4789 6.3851 0.5270 0.6843 -1.6725 0.3480 0.3398 -5.3242 -8.9788 -4.2105 -24.7790 6.0602 -4.5091 26.9655 3.0580 -2.0964 13.6277 0.0000 -0.0000 0.0000 -87.7065 4.8384 23.4837 15.6967 -25.1076 -3.5163 -0.0000 -0.0000 11.9717 17.4992 25.2908 7.6712 -7.1250 0.0000 -0.0000 -13.1637 55.8480 -3.5477 0.0000 -0.0000 0.0000 90.5316 -2.3541 16.5923 -15.7320 25.1559 -3.5313 0.0000 0.0000 12.3368 -11.0365 9.0400 -1.7553 7.1250 -0.0000 -0.0000 11.3822 -20.8480 6.7177
15.3228 18.1564 -9.7693 1.1813 -51.6323 0.8426 0.0000 0.0000 0.0000 -23.9563 -5.7119 -3.3623 1.5590 7.8798 22.3495 0.6397 3.0234 -16.5053 0.0475 1.4069 3.8691 0.0000 0.0000 0.0000 23.0115 10.5505 -8.5516 -3.2423 -11.0774 32.5413 -1.1251 -1.3596 -20.5754 -0.0880 -1.9134 5.2663 0.1948 0.5048 6.3391 0.5165 0.7159 -1.6627 0.3494 0.3561 -5.2882 -9.1634 -4.2654 -24.7473 6.2764 -4.5850 26.9213 3.1611 -2.1183 13.6218 -0.0000 0.0000 0.0000 -87.3083 4.4156 24.1258 15.4156 -24.7218 -3.3978 -0.0000 -0.0000 11.2388 17.8323 25.1449 7.7834 -7.1250 0.0000 -0.0000 -12.7474 55.7704 -3.4086 -0.0000 0.0000 0.0000 90.5271 -2.3785 16.6327 -15.6910 25.0999 -3.5138 0.0000 0.0000 12.4653 -11.2200 8.8499 -1.7480 7.1250 -0.0000 -0.0000 11.2618 -21.0307 6.5965
15.3202 18.1561 -9.7663 1.1825 -51.5945 0.8426 0.0000 0.0000 0.0000 -23.9668 -5.7396 -3.3162 1.5525 7.8641 22.3021 0.6360 3.0295 -16.4667 0.0451 1.3713 3.7710 0.0000 0.0000 0.0000 22.9979 10.4690 -8.5840 -3.2482 -11.0864 32.5718 -1.1342 -1.2863 -20.6258 -0.0925 -1.9616 5.3995 0.1932 0.5057 6.2875 0.5154 0.7164 -1.6491 0.3495 0.3565 -5.2446 -9.2765 -4.2831 -24.7813 6.4102 -4.6044 26.9181 3.2306 -2.1191 13.6367 0.0000 0.0000 0.0000 -87.5318 4.5593 23.7246 15.4247 -24.7344 -3.4017 -0.0000 -0.0000 11.4859 18.2613 25.1130 7.9719 -7.1250 0.0000 -0.0000 -12.2889 55.8255 -3.2998 0.0000 0.0000 0.0000 90.5124 -2.3896 16.6376 -15.6325 25.0198 -3.4891 0.0000 0.0000 12.5275 -11.3914 8.7977 -1.7650 7.1250 -0.0000 -0.0000 11.1424 -21.0763 6.5120
15.3179 18.1557 -9.7646 1.2571 -51.5606 0.7631 0.0000 0.0000 0.0000 -24.0237 -5.7445 -3.2488 1.5453 7.8468 22.2496 0.6325 3.0040 -16.4118 0.0397 1.2866 3.5377 0.0000 0.0000 0.0000 22.9422 10.3811 -8.5987 -3.2546 -11.0962 32.6049 -1.1357 -1.2969 -20.6436 -0.0862 -1.8938 5.2123 0.0828 0.3774 6.2580 0.6258 0.5413 -1.6512 0.5451 0.2752 -5.2312 -9.4846 -4.1728 -24.8266 6.3715 -4.3409 26.9394 3.3013 -2.0318 13.6337 0.0000 -0.0000 0.0000 -88.0919 4.8246 22.5827 15.4649 -24.7898 -3.4185 -0.0000 -0.0000 12.1671 18.0574 24.9242 7.8231 -7.1250 0.0000 -0.0000 -12.4071 55.5961 -3.2628 0.0000 -0.0000 0.0000 90.2215 -2.4499 17.1210 -15.5922 24.9646 -3.4720 0.0000 0.0000 12.3440 -11.5068 8.8238 -1.7886 7.1250 -0.0000 -0.0000 11.0587 -21.0458 6.4690
15.3163 18.1549 -9.7606 1.3625 -51.5531 0.6546 0.0000 0.0000 0.0000 -24.1150 -5.7558 -3.1828 1.5422 7.8392 22.2266 0.6323 2.9932 -16.4029 0.0410 1.3066 3.5929 0.0000 0.0000 0.0000 22.8553 10.2756 -8.6116 -3.2584 -11.1021 32.6249 -1.1345 -1.2320 -20.6060 -0.0839 -1.8684 5.1422 -0.0802 0.1249 6.2409 0.8286 0.2008 -1.7090 0.8837 0.1154 -5.2801 -9.7878 -3.9284 -24.7701 6.2674 -3.8369 27.0039 3.4087 -1.8628 13.6040 -0.0000 -0.0000 0.0000 -88.6763 5.0367 21.4075 15.4122 -24.7172 -3.3964 -0.0000 -0.0000 12.4214 18.1566 24.7345 7.8131 -7.1250 0.0000 -0.0000 -12.2136 55.4267 -3.1602 -0.0000 -0.0000 0.0000 89.7231 -2.5846 18.0371 -15.5341 24.8848 -3.4476 0.0000 0.0000 12.1198 -11.3668 8.7779 -1.7572 7.1250 -0.0000 -0.0000 11.1610 -21.0970 6.5180
15.3148 18.1534 -9.7583 1.3976 -51.5452 0.6060 0.0000 0.0000 0.0000 -24.1564 -5.7961 -3.1283 1.5422 7.8392 22.2266 0.6341 3.0259 -16.4429 0.0486 1.4224 3.9119 0.0000 0.0000 0.0000 22.8310 10.2619 -8.5888 -3.2623 -11.1081 32.6452 -1.1392 -1.2102 -20.6390 -0.0779 -1.8008 4.9553 -0.1728 0.0075 6.2342 0.9434 0.0421 -1.7359 1.0722 0.0419 -5.3022 -10.0766 -3.8314 -24.6668 6.3739 -3.6222 26.9573 3.5404 -1.7863 13.5509 -0.0000 0.0000 0.0000 -89.0005 5.1520 20.8596 15.3898 -24.6863 -3.3871 -0.0000 -0.0000 12.3811 18.3617 24.9581 7.9726 -7.1250 0.0000 -0.0000 -12.1097 55.6911 -3.2110 -0.0000 0.0000 0.0000 89.4668 -2.6508 18.3946 -15.4633 24.7875 -3.4178 0.0000 0.0000 12.1735 -11.2209 8.7546 -1.7295 7.1250 -0.0000 -0.0000 11.2664 -21.1258 6.5745
15.3144 18.1530 -9.7570 1.3604 -51.5229 0.6346 0.0000 0.0000 0.0000 -24.1249 -5.8028 -3.1377 1.5450 7.8460 22.2473 0.6410 2.9359 -16.4716 0.0636 1.6267 4.4750 0.0000 0.0000 0.0000 22.8559 10.2843 -8.5618 -3.2627 -11.1086 32.6470 -1.1443 -1.1596 -20.6638 -0.0886 -1.9194 5.2831 -0.1180 0.0191 6.2157 0.9069 0.0601 -1.7226 1.0014 0.0484 -5.2780 -10.0536 -3.8556 -24.5443 6.3879 -3.6743 26.7553 3.5266 -1.8018 13.4465 0.0000 -0.0000 0.0000 -88.9251 5.1320 20.8942 15.3417 -24.6200 -3.3670 -0.0000 -0.0000 12.2961 18.3370 25.0319 7.9830 -7.1250 0.0000 -0.0000 -12.1709 55.7598 -3.2479 0.0000 -0.0000 0.0000 89.5331 -2.6507 18.3762 -15.4139 24.7196 -3.3972 0.0000 0.0000 12.2006 -11.2309 8.5613 -1.6932 7.1250 -0.0000 -0.0000 11.2700 -21.3186 6.5265
15.3139 18.1508 -9.7559 1.3541 -51.4842 0.6090 0.0000 0.0000 0.0000 -24.1287 -5.8158 -3.1229 1.5516 7.8619 22.2954 0.6433 2.9398 -16.5008 0.0682 1.6851 4.6361 0.0000 0.0000 0.0000 22.8602 10.2025 -8.5545 -3.2623 -11.1080 32.6452 -1.1413 -1.1941 -20.6507 -0.0831 -1.8591 5.1164 -0.0769 0.0342 6.2180 0.8513 0.0808 -1.6888 0.9182 0.0562 -5.2441 -9.9448 -3.8942 -24.6071 6.3552 -3.7519 26.6865 3.4785 -1.8259 13.4351 -0.0000 0.0000 0.0000 -88.8140 5.0656 20.9773 15.2698 -24.5206 -3.3371 -0.0000 -0.0000 12.3403 18.2091 24.9194 7.8912 -7.1250 0.0000 -0.0000 -12.2483 55.6217 -3.2278 -0.0000 0.0000 0.0000 89.6420 -2.6626 18.2286 -15.3912 24.6882 -3.3876 0.0000 0.0000 12.2909 -11.3389 8.1277 -1.6239 7.1250 -0.0000 -0.0000 11.2175 -21.7479 6.3833
15.3134 18.1513 -9.7534 1.3076 -51.4350 0.5854 0.0000 0.0000 0.0000 -24.1121 -5.7838 -3.0839 1.5593 7.8805 22.3518 0.6428 2.9728 -16.5124 0.0543 1.5031 4.1342 0.0000 0.0000 0.0000 22.9018 10.1392 -8.4876 -3.2611 -11.1061 32.6387 -1.1445 -1.2527 -20.7034 -0.0781 -1.8029 4.9613 -0.0217 0.0433 6.2527 0.8319 0.0966 -1.6670 0.8654 0.0619 -5.2411 -9.8871 -3.8960 -24.6290 6.3650 -3.7761 26.6481 3.4671 -1.8276 13.4247 0.0000 -0.0000 0.0000 -88.7879 5.0261 20.9686 15.1898 -24.4098 -3.3040 -0.0000 -0.0000 12.6293 18.2479 25.3670 8.0400 -7.1250 0.0000 -0.0000 -12.4283 56.0759 -3.4140 0.0000 -0.0000 0.0000 89.6588 -2.6854 18.1170 -15.3304 24.6044 -3.3623 0.0000 0.0000 12.2904 -11.3774 7.8231 -1.5689 7.1250 -0.0000 -0.0000 11.2080 -22.0511 6.2988
